<svg width="40" height="40" viewBox="0 0 40 40" fill="none" xmlns="http://www.w3.org/2000/svg">
<path fill-rule="evenodd" clip-rule="evenodd" d="M20.3203 13.5332C21.9203 13.6142 23.438 14.2857 24.5762 15.4238C25.79 16.6377 26.4725 18.2834 26.4746 20C26.4746 21.2806 26.0953 22.5328 25.3838 23.5977C24.6723 24.6624 23.6606 25.4924 22.4775 25.9824C21.2945 26.4724 19.9922 26.6004 18.7363 26.3506C17.4805 26.1007 16.3273 25.4836 15.4219 24.5781C14.5164 23.6727 13.8993 22.5195 13.6494 21.2637C13.3996 20.0078 13.5276 18.7055 14.0176 17.5225C14.5076 16.3394 15.3376 15.3277 16.4023 14.6162C17.4672 13.9047 18.7194 13.5254 20 13.5254L20.3203 13.5332ZM22.3057 14.4336C21.2047 13.9776 19.9929 13.8583 18.8242 14.0908C17.6556 14.3233 16.5818 14.8967 15.7393 15.7393C14.8967 16.5818 14.3233 17.6556 14.0908 18.8242C13.8583 19.9929 13.9776 21.2047 14.4336 22.3057C14.8896 23.4065 15.6616 24.3477 16.6523 25.0098C17.6431 25.6718 18.8084 26.0254 20 26.0254C21.5979 26.0254 23.1308 25.3906 24.2607 24.2607C25.3906 23.1308 26.0254 21.5979 26.0254 20C26.0254 18.8084 25.6718 17.6431 25.0098 16.6523C24.3477 15.6616 23.4065 14.8896 22.3057 14.4336Z" fill="#FFF5EF"/>
<path d="M28.125 11.0254C28.3504 11.0254 28.5662 11.115 28.7256 11.2744C28.885 11.4338 28.9746 11.6496 28.9746 11.875C28.9746 12.0431 28.9254 12.2079 28.832 12.3477C28.7386 12.4874 28.6055 12.5958 28.4502 12.6602C28.2949 12.7245 28.1239 12.7418 27.959 12.709C27.7941 12.6762 27.6433 12.5944 27.5244 12.4756C27.4056 12.3567 27.3238 12.2059 27.291 12.041C27.2582 11.8761 27.2755 11.7051 27.3398 11.5498C27.4042 11.3945 27.5126 11.2614 27.6523 11.168C27.7921 11.0746 27.9569 11.0254 28.125 11.0254Z" fill="#FFF5EF"/>
<path fill-rule="evenodd" clip-rule="evenodd" d="M27.5 4.77539L27.8828 4.78516C29.7914 4.88199 31.6023 5.68235 32.96 7.04004C34.4081 8.48822 35.2221 10.452 35.2246 12.5V27.5L35.2148 27.8828C35.118 29.7914 34.3177 31.6023 32.96 32.96C31.6023 34.3177 29.7914 35.118 27.8828 35.2148L27.5 35.2246H12.5C10.452 35.2221 8.48822 34.4081 7.04004 32.96C5.68235 31.6023 4.88199 29.7914 4.78516 27.8828L4.77539 27.5V12.5C4.77787 10.452 5.59185 8.48822 7.04004 7.04004C8.48822 5.59185 10.452 4.77787 12.5 4.77539H27.5ZM12.5 5.22461C10.5713 5.2268 8.72217 5.99463 7.3584 7.3584C5.99463 8.72217 5.2268 10.5713 5.22461 12.5V27.5C5.2268 29.4287 5.99463 31.2778 7.3584 32.6416C8.72217 34.0054 10.5713 34.7732 12.5 34.7754H27.5C29.4287 34.7732 31.2778 34.0054 32.6416 32.6416C34.0054 31.2778 34.7732 29.4287 34.7754 27.5V12.5C34.7732 10.5713 34.0054 8.72217 32.6416 7.3584C31.2778 5.99463 29.4287 5.2268 27.5 5.22461H12.5Z" fill="#FFF5EF"/>
<path fill-rule="evenodd" clip-rule="evenodd" d="M20.3203 13.5332C21.9203 13.6142 23.438 14.2857 24.5762 15.4238C25.79 16.6377 26.4725 18.2834 26.4746 20C26.4746 21.2806 26.0953 22.5328 25.3838 23.5977C24.6723 24.6624 23.6606 25.4924 22.4775 25.9824C21.2945 26.4724 19.9922 26.6004 18.7363 26.3506C17.4805 26.1007 16.3273 25.4836 15.4219 24.5781C14.5164 23.6727 13.8993 22.5195 13.6494 21.2637C13.3996 20.0078 13.5276 18.7055 14.0176 17.5225C14.5076 16.3394 15.3376 15.3277 16.4023 14.6162C17.4672 13.9047 18.7194 13.5254 20 13.5254L20.3203 13.5332ZM22.3057 14.4336C21.2047 13.9776 19.9929 13.8583 18.8242 14.0908C17.6556 14.3233 16.5818 14.8967 15.7393 15.7393C14.8967 16.5818 14.3233 17.6556 14.0908 18.8242C13.8583 19.9929 13.9776 21.2047 14.4336 22.3057C14.8896 23.4065 15.6616 24.3477 16.6523 25.0098C17.6431 25.6718 18.8084 26.0254 20 26.0254C21.5979 26.0254 23.1308 25.3906 24.2607 24.2607C25.3906 23.1308 26.0254 21.5979 26.0254 20C26.0254 18.8084 25.6718 17.6431 25.0098 16.6523C24.3477 15.6616 23.4065 14.8896 22.3057 14.4336Z" stroke="#FFF5EF"/>
<path d="M28.125 11.0254C28.3504 11.0254 28.5662 11.115 28.7256 11.2744C28.885 11.4338 28.9746 11.6496 28.9746 11.875C28.9746 12.0431 28.9254 12.2079 28.832 12.3477C28.7386 12.4874 28.6055 12.5958 28.4502 12.6602C28.2949 12.7245 28.1239 12.7418 27.959 12.709C27.7941 12.6762 27.6433 12.5944 27.5244 12.4756C27.4056 12.3567 27.3238 12.2059 27.291 12.041C27.2582 11.8761 27.2755 11.7051 27.3398 11.5498C27.4042 11.3945 27.5126 11.2614 27.6523 11.168C27.7921 11.0746 27.9569 11.0254 28.125 11.0254Z" stroke="#FFF5EF"/>
<path fill-rule="evenodd" clip-rule="evenodd" d="M27.5 4.77539L27.8828 4.78516C29.7914 4.88199 31.6023 5.68235 32.96 7.04004C34.4081 8.48822 35.2221 10.452 35.2246 12.5V27.5L35.2148 27.8828C35.118 29.7914 34.3177 31.6023 32.96 32.96C31.6023 34.3177 29.7914 35.118 27.8828 35.2148L27.5 35.2246H12.5C10.452 35.2221 8.48822 34.4081 7.04004 32.96C5.68235 31.6023 4.88199 29.7914 4.78516 27.8828L4.77539 27.5V12.5C4.77787 10.452 5.59185 8.48822 7.04004 7.04004C8.48822 5.59185 10.452 4.77787 12.5 4.77539H27.5ZM12.5 5.22461C10.5713 5.2268 8.72217 5.99463 7.3584 7.3584C5.99463 8.72217 5.2268 10.5713 5.22461 12.5V27.5C5.2268 29.4287 5.99463 31.2778 7.3584 32.6416C8.72217 34.0054 10.5713 34.7732 12.5 34.7754H27.5C29.4287 34.7732 31.2778 34.0054 32.6416 32.6416C34.0054 31.2778 34.7732 29.4287 34.7754 27.5V12.5C34.7732 10.5713 34.0054 8.72217 32.6416 7.3584C31.2778 5.99463 29.4287 5.2268 27.5 5.22461H12.5Z" stroke="#FFF5EF"/>
</svg>
