<svg width="40" height="40" viewBox="0 0 40 40" fill="none" xmlns="http://www.w3.org/2000/svg">
<path d="M34.0247 6.81641C34.577 6.81641 35.079 7.06201 35.3792 7.54492C35.6747 8.02031 35.7515 8.68791 35.5521 9.50098L30.9027 31.418C30.7331 32.2303 30.3878 32.8088 29.8431 33.0547C29.2992 33.3 28.6493 33.1718 27.97 32.793C27.9608 32.7878 27.9512 32.7817 27.9427 32.7754L16.8538 24.585V24.5859C16.7788 24.532 16.7174 24.4611 16.6751 24.3789C16.6328 24.2965 16.6107 24.2049 16.6107 24.1123C16.6107 24.0197 16.6328 23.9281 16.6751 23.8457C16.7138 23.7703 16.7686 23.7044 16.8353 23.6523L29.6409 12.0889L29.6429 12.0879C29.6927 12.0438 29.7214 12.0071 29.7406 11.9814C29.6897 11.9747 29.613 11.9762 29.512 11.9971C29.3781 12.0248 29.2172 12.0837 29.0492 12.1855L12.9749 22.3281C12.8953 22.3793 12.8052 22.412 12.7113 22.4238C12.6176 22.4355 12.5224 22.4252 12.4329 22.3955L5.60774 20.2383V20.2373C5.20986 20.1208 4.88718 19.9592 4.66536 19.7529C4.43786 19.5413 4.30881 19.2734 4.34017 18.9736C4.37048 18.6842 4.54504 18.4175 4.80892 18.1855C5.07474 17.9519 5.4512 17.7349 5.93196 17.543L5.93489 17.541L33.2435 7.00781V7.00879C33.4852 6.89657 33.7458 6.83026 34.012 6.81641H34.0247ZM17.1204 24.1504L17.1458 24.1797L17.1488 24.1816L28.224 32.3623C28.8393 32.7031 29.3068 32.7481 29.638 32.5986C29.9701 32.4486 30.2579 32.0599 30.4134 31.3145L35.0638 9.39746L35.0658 9.38965C35.247 8.65674 35.1578 8.13568 34.9544 7.80859C34.7561 7.48973 34.4274 7.31884 34.0335 7.31641C33.8281 7.32768 33.6266 7.3785 33.4408 7.4668C33.4351 7.4695 33.429 7.47234 33.4232 7.47461L6.11653 18.0059L6.11751 18.0068C5.66938 18.1857 5.34833 18.3766 5.13899 18.5605C4.92803 18.746 4.84977 18.9067 4.83724 19.0254C4.82589 19.1339 4.86523 19.2556 5.00618 19.3867C5.1154 19.4883 5.27971 19.589 5.50618 19.6768L5.75325 19.7598L5.75911 19.7617L12.5833 21.9199L12.5892 21.9219C12.6083 21.9284 12.6287 21.9302 12.6488 21.9277C12.6689 21.9252 12.6884 21.9183 12.7054 21.9072L12.7083 21.9053L28.7835 11.7637L28.7865 11.7607C29.0005 11.6305 29.2152 11.5472 29.4105 11.5068C29.6009 11.4675 29.7924 11.4656 29.9495 11.5195C30.0295 11.547 30.1127 11.5934 30.1761 11.6689C30.2428 11.7487 30.277 11.8483 30.2728 11.9541C30.2648 12.148 30.1337 12.3204 29.974 12.4619L17.1673 24.0273C17.1605 24.0335 17.1533 24.0396 17.1458 24.0449C17.1352 24.0526 17.1265 24.0625 17.1204 24.0742C17.1144 24.086 17.1107 24.0991 17.1107 24.1123C17.1107 24.1255 17.1144 24.1386 17.1204 24.1504Z" fill="#FFF5EF" stroke="#FFF5EF" stroke-linecap="round" stroke-linejoin="round"/>
</svg>
