<svg width="40" height="40" viewBox="0 0 40 40" fill="none" xmlns="http://www.w3.org/2000/svg">
<path fill-rule="evenodd" clip-rule="evenodd" d="M16.6415 14.7861C16.7185 14.7417 16.8134 14.742 16.8905 14.7861L25.5966 19.7783C25.6742 19.8228 25.7225 19.9056 25.7226 19.9951C25.7226 20.0846 25.6743 20.1673 25.5966 20.2119L16.8905 25.2051C16.8133 25.2491 16.7185 25.2486 16.6415 25.2041C16.5645 25.1594 16.5167 25.0773 16.5165 24.9883V15.0029C16.5165 14.9138 16.5644 14.8308 16.6415 14.7861ZM17.0165 24.5566L24.9687 19.9951L17.0165 15.4336V24.5566Z" fill="#FFF5EF"/>
<path fill-rule="evenodd" clip-rule="evenodd" d="M21.2782 8.1074C24.0755 8.12893 26.7655 8.20943 28.8778 8.33103C29.9337 8.39181 30.8483 8.46318 31.5605 8.54294C32.2391 8.61896 32.7627 8.70619 33.0458 8.80857C33.7939 9.00934 34.4776 9.40352 35.0253 9.95115C35.5731 10.4989 35.9671 11.1815 36.1679 11.9297L36.1689 11.9345C36.6839 14.0117 36.9215 16.9957 36.9159 19.9726C36.9104 22.9505 36.6619 25.947 36.1923 28.0517L36.1894 28.0615C35.9886 28.8097 35.5945 29.4923 35.0468 30.04C34.4992 30.5876 33.8172 30.9818 33.0693 31.1826L33.0644 31.1836C32.0241 31.4408 30.1057 31.6217 27.7763 31.7373C25.4389 31.8532 22.6649 31.9042 19.9003 31.8965C17.1356 31.8887 14.3767 31.8229 12.0693 31.7031C9.76916 31.5837 7.89705 31.4099 6.91789 31.1845L6.9091 31.1826C6.16102 30.9818 5.47829 30.5877 4.93058 30.04C4.38297 29.4923 3.98877 28.8095 3.788 28.0615L3.78703 28.0566C3.30056 26.0744 3.07739 23.0094 3.08292 19.9736C3.08848 16.9372 3.32313 13.8971 3.76457 11.9609L3.76652 11.9511L3.8505 11.6738C4.06783 11.0345 4.42988 10.452 4.9091 9.97263C5.45682 9.42478 6.13943 9.03095 6.88761 8.83005L6.90128 8.82615C9.642 8.25435 15.6946 8.06443 21.2782 8.1074ZM21.2743 8.6074C15.6821 8.56437 9.68611 8.75681 7.00578 9.3154C6.3467 9.49448 5.74558 9.84305 5.26261 10.3261C4.77691 10.812 4.42786 11.4175 4.24992 12.081C3.82194 13.9644 3.58844 16.9569 3.58292 19.9746C3.57742 22.9955 3.80036 26.0096 4.2714 27.9326L4.34562 28.1777C4.53838 28.7447 4.85907 29.2614 5.2841 29.6865C5.76748 30.1699 6.36955 30.5184 7.02921 30.6972C7.95957 30.9114 9.79072 31.0834 12.0956 31.2031C14.3931 31.3224 17.1431 31.3888 19.9013 31.3965C22.6597 31.4042 25.4245 31.3536 27.7509 31.2383C29.7931 31.137 31.4818 30.9865 32.5331 30.7871L32.9443 30.6982C33.6056 30.5197 34.2088 30.1709 34.6933 29.6865C35.1777 29.2021 35.5265 28.5988 35.705 27.9375C36.163 25.8818 36.4104 22.9279 36.4159 19.9717C36.4214 17.0117 36.1843 14.0742 35.6835 12.0547C35.505 11.3934 35.1562 10.789 34.6718 10.3047C34.1862 9.81915 33.5811 9.47004 32.9179 9.29197C32.9094 9.28968 32.9007 9.28633 32.8925 9.28318C32.6865 9.20366 32.216 9.1187 31.5048 9.03904C30.8051 8.96068 29.9007 8.89057 28.8495 8.83005C26.7474 8.70904 24.0657 8.62888 21.2743 8.6074Z" fill="#FFF5EF"/>
<path fill-rule="evenodd" clip-rule="evenodd" d="M16.6415 14.7861C16.7185 14.7417 16.8134 14.742 16.8905 14.7861L25.5966 19.7783C25.6742 19.8228 25.7225 19.9056 25.7226 19.9951C25.7226 20.0846 25.6743 20.1673 25.5966 20.2119L16.8905 25.2051C16.8133 25.2491 16.7185 25.2486 16.6415 25.2041C16.5645 25.1594 16.5167 25.0773 16.5165 24.9883V15.0029C16.5165 14.9138 16.5644 14.8308 16.6415 14.7861ZM17.0165 24.5566L24.9687 19.9951L17.0165 15.4336V24.5566Z" stroke="#FFF5EF" stroke-linecap="round" stroke-linejoin="round"/>
<path fill-rule="evenodd" clip-rule="evenodd" d="M21.2782 8.1074C24.0755 8.12893 26.7655 8.20943 28.8778 8.33103C29.9337 8.39181 30.8483 8.46318 31.5605 8.54294C32.2391 8.61896 32.7627 8.70619 33.0458 8.80857C33.7939 9.00934 34.4776 9.40352 35.0253 9.95115C35.5731 10.4989 35.9671 11.1815 36.1679 11.9297L36.1689 11.9345C36.6839 14.0117 36.9215 16.9957 36.9159 19.9726C36.9104 22.9505 36.6619 25.947 36.1923 28.0517L36.1894 28.0615C35.9886 28.8097 35.5945 29.4923 35.0468 30.04C34.4992 30.5876 33.8172 30.9818 33.0693 31.1826L33.0644 31.1836C32.0241 31.4408 30.1057 31.6217 27.7763 31.7373C25.4389 31.8532 22.6649 31.9042 19.9003 31.8965C17.1356 31.8887 14.3767 31.8229 12.0693 31.7031C9.76916 31.5837 7.89705 31.4099 6.91789 31.1845L6.9091 31.1826C6.16102 30.9818 5.47829 30.5877 4.93058 30.04C4.38297 29.4923 3.98877 28.8095 3.788 28.0615L3.78703 28.0566C3.30056 26.0744 3.07739 23.0094 3.08292 19.9736C3.08848 16.9372 3.32313 13.8971 3.76457 11.9609L3.76652 11.9511L3.8505 11.6738C4.06783 11.0345 4.42988 10.452 4.9091 9.97263C5.45682 9.42478 6.13943 9.03095 6.88761 8.83005L6.90128 8.82615C9.642 8.25435 15.6946 8.06443 21.2782 8.1074ZM21.2743 8.6074C15.6821 8.56437 9.68611 8.75681 7.00578 9.3154C6.3467 9.49448 5.74558 9.84305 5.26261 10.3261C4.77691 10.812 4.42786 11.4175 4.24992 12.081C3.82194 13.9644 3.58844 16.9569 3.58292 19.9746C3.57742 22.9955 3.80036 26.0096 4.2714 27.9326L4.34562 28.1777C4.53838 28.7447 4.85907 29.2614 5.2841 29.6865C5.76748 30.1699 6.36955 30.5184 7.02921 30.6972C7.95957 30.9114 9.79072 31.0834 12.0956 31.2031C14.3931 31.3224 17.1431 31.3888 19.9013 31.3965C22.6597 31.4042 25.4245 31.3536 27.7509 31.2383C29.7931 31.137 31.4818 30.9865 32.5331 30.7871L32.9443 30.6982C33.6056 30.5197 34.2088 30.1709 34.6933 29.6865C35.1777 29.2021 35.5265 28.5988 35.705 27.9375C36.163 25.8818 36.4104 22.9279 36.4159 19.9717C36.4214 17.0117 36.1843 14.0742 35.6835 12.0547C35.505 11.3934 35.1562 10.789 34.6718 10.3047C34.1862 9.81915 33.5811 9.47004 32.9179 9.29197C32.9094 9.28968 32.9007 9.28633 32.8925 9.28318C32.6865 9.20366 32.216 9.1187 31.5048 9.03904C30.8051 8.96068 29.9007 8.89057 28.8495 8.83005C26.7474 8.70904 24.0657 8.62888 21.2743 8.6074Z" stroke="#FFF5EF" stroke-linecap="round" stroke-linejoin="round"/>
</svg>
